<?xml version="1.0" encoding="iso-8859-1"?>
<!-- Generator: Adobe Illustrator 19.0.0, SVG Export Plug-In . SVG Version: 6.00 Build 0)  -->
<svg version="1.1" id="Capa_1" xmlns="http://www.w3.org/2000/svg" xmlns:xlink="http://www.w3.org/1999/xlink" x="0px" y="0px"
	 viewBox="0 0 512 512" style="enable-background:new 0 0 512 512;" xml:space="preserve">
<g>
	<g>
		<path style="fill:#676E83;" d="M130.001,221c46.681,0,85-38.319,85-85V91h-62.578H45v45C45,182.682,83.319,221,130.001,221z"/>
		<path style="fill:#676E83;" d="M297.002,136c0,15.135,4.027,29.391,11.063,41.746c7.82,13.735,19.356,25.123,33.206,32.76
			C353.39,217.189,367.28,221,382.002,221c46.682,0,85-38.319,85-85V91h-170L297.002,136L297.002,136z"/>
	</g>
	<path style="fill:#46C99E;" d="M308.065,177.745c-7.035-12.355-11.063-26.611-11.063-41.746V91h170v45c0,46.681-38.318,85-85,85
		c-14.723,0-28.612-3.811-40.731-10.494C327.421,202.868,315.885,191.48,308.065,177.745L308.065,177.745z M234.416,194.941
		c9.692-16.787,32.845-17.883,43.17,0c0.987,1.71,2.384,3.965,4.098,6.693c21.498,32.679,58.496,54.364,100.318,54.364
		c66,0,120-54,120-120v-60c0-11-9-20-20-20H30c-11,0-20,9-20,20v60c0,66,54,120,120.001,120c41.913,0,78.981-21.781,100.458-54.579
		C232.097,198.809,233.443,196.628,234.416,194.941L234.416,194.941z M215.001,91v45c0,46.681-38.319,85-85,85
		c-12.614,0-24.617-2.798-35.419-7.803C65.408,199.681,45,170.066,45,136V91h107.423C152.423,91,215.001,91,215.001,91z"/>
	<g>
		<path style="fill:#FFC28C;" d="M332.19,303.374c-10.57-39.776-38.41-82.486-50.506-101.738c-1.435-2.183-2.803-4.415-4.098-6.693
			c-10.325-17.883-33.478-16.787-43.17,0c-1.252,2.204-2.572,4.364-3.957,6.479c-12.101,19.302-40.094,62.109-50.735,101.953
			c-5.866,21.972-6.456,43.042,3.805,58.774c10.581,16.221,32.701,26.766,72.473,26.766
			C334.177,388.913,344.045,347.988,332.19,303.374z"/>
		<path style="fill:#FFC28C;" d="M183.528,362.147c-10.261-15.732-9.671-36.802-3.805-58.774
			c-5.599-3.383-12.015-5.171-18.557-5.171c-19.817,0-35.882,16.065-35.882,35.883c0,6.553,1.757,12.696,4.825,17.983
			c6.21,10.702,17.793,17.898,31.057,17.898C169.291,369.966,177.175,367.21,183.528,362.147z"/>
		<path style="fill:#FFC28C;" d="M328.385,362.147c10.261-15.732,9.67-36.802,3.805-58.774c5.599-3.383,12.016-5.171,18.557-5.171
			c19.816,0,35.882,16.065,35.882,35.883c0,6.553-1.757,12.696-4.825,17.983c-6.21,10.702-17.793,17.898-31.057,17.898
			C342.622,369.966,334.738,367.21,328.385,362.147z"/>
	</g>
	<path style="fill:#676E83;" d="M381.814,352.049c22.781,5.793,40.688,26.766,40.688,51.283v12.333l-0.12,0.001
		c0,26.391-30.27,49.988-53.098,27.161c-45.387-45.388-45.21,45.565-90.775,0c-9.113-9.115-16.388-12.723-22.566-13.051
		c-6.18,0.328-13.453,3.937-22.567,13.051c-45.566,45.565-45.388-45.388-90.775,0c-22.827,22.827-53.098-0.77-53.098-27.161v-12.334
		c0-23.251,15.525-43.171,36.563-50.108c0.104-0.034,1.743-0.068,4.684-0.103c6.345,10.117,17.597,16.844,30.42,16.844
		c8.124,0,16.008-2.757,22.361-7.819c10.581,16.221,32.701,26.766,72.473,26.766c47.205,0,69.497-14.925,77.147-36.57h0.05
		c-1.219,3.45-2.808,6.73-4.814,9.805c6.354,5.062,14.237,7.819,22.361,7.819c13.264,0,24.847-7.196,31.057-17.898L381.814,352.049
		L381.814,352.049L381.814,352.049z"/>
</g>
<path d="M215.001,81H45c-5.522,0-10,4.477-10,10v45c0,52.383,42.617,95,95.001,95c52.383,0,95-42.617,95-95V91
	C225.001,85.477,220.523,81,215.001,81z M205.001,136c0,41.355-33.645,75-75,75c-5.881,0-11.597-0.702-17.091-1.988l52.241-52.242
	c3.905-3.905,3.905-10.237,0-14.143c-3.906-3.905-10.236-3.905-14.143,0l-58.364,58.365C70.17,188.023,55,163.758,55,136v-35h73.28
	l-4.874,4.874c-3.905,3.905-3.905,10.237,0,14.142c1.953,1.953,4.512,2.929,7.071,2.929s5.118-0.977,7.071-2.929L156.565,101h48.436
	V136z"/>
<path d="M467.002,81h-170c-5.523,0-10,4.477-10,10v45c0,52.383,42.617,95,95,95s95-42.617,95-95V91
	C477.002,85.477,472.525,81,467.002,81z M457.002,136c0,41.355-33.645,75-75,75c-8.149,0-15.992-1.324-23.344-3.739l53.181-53.182
	c3.905-3.906,3.905-10.237,0-14.143c-3.906-3.905-10.236-3.905-14.143,0l-57.972,57.972c-7.382-5.058-13.808-11.405-18.973-18.707
	l16.329-16.329c3.905-3.905,3.905-10.237,0-14.142s-10.235-3.905-14.143,0l-11.797,11.796C308.47,152.835,307,144.588,307,136v-35
	h150v35H457.002z"/>
<path d="M482.002,46H30C13.458,46,0,59.458,0,76v60c0,71.682,58.318,130,130.001,130c21.126,0,41.576-5.224,59.785-14.714
	c-6.206,12.292-12.006,25.407-16.374,38.583c-3.97-1.1-8.088-1.667-12.245-1.667c-25.3,0-45.882,20.583-45.882,45.883
	c0,4.156,0.565,8.181,1.605,12.012C94.693,356.115,79.5,378.63,79.5,403.332v12.334c0,18.652,11.717,36.533,28.493,43.482
	c14.571,6.036,29.762,2.664,41.676-9.249c6.644-6.644,12.325-10.155,16.432-10.155c0.002,0,0.005,0,0.007,0
	c4.564,0.005,9.484,4.944,14.693,10.174c7.131,7.159,16.006,16.069,28.895,16.082c0.009,0,0.018,0,0.026,0
	c9.838,0,19.888-5.267,30.722-16.102c7.622-7.622,12.573-9.74,15.496-10.09c2.923,0.35,7.873,2.467,15.495,10.09
	C282.27,460.733,292.318,466,302.157,466c0.008,0,0.018,0,0.026,0c12.89-0.013,21.765-8.923,28.896-16.082
	c5.209-5.229,10.129-10.169,14.693-10.174c0.002,0,0.004,0,0.007,0c4.105,0,9.788,3.512,16.431,10.155
	c11.915,11.913,27.105,15.286,41.676,9.249c16.248-6.73,27.75-23.712,28.459-41.721c0.102-0.572,0.154-1.161,0.154-1.762v-12.333
	c0-24.465-15.241-46.98-37.496-57.175c1.051-3.85,1.623-7.895,1.623-12.073c0-25.3-20.582-45.883-45.882-45.883
	c-4.141,0-8.242,0.564-12.197,1.655c-4.352-13.173-10.138-26.286-16.337-38.578c18.214,9.496,38.663,14.72,59.79,14.72
	c71.683,0,130-58.318,130-130v-60C512.002,59.458,498.544,46,482.002,46z M242.112,201.574c0.345-0.574,0.672-1.126,0.964-1.631
	c2.895-5.012,7.784-8.004,13.08-8.004c3.043,0,8.748,1.04,12.735,7.945c0.01,0.017,0.021,0.033,0.029,0.05
	c0.002,0.003,0.003,0.006,0.005,0.009c0.288,0.499,0.611,1.044,0.954,1.614c0.991,1.685,2.012,3.346,3.071,4.976
	c0.776,1.238,1.611,2.561,2.514,3.992c11.976,18.976,36.947,58.549,46.828,94.299c0.105,0.724,0.302,1.44,0.572,2.141
	c4.688,18.006,5.373,34.91-1.594,47.544c-8.93,16.194-30.89,24.405-65.271,24.405c-34.465,0-56.47-8.211-65.402-24.403
	c-6.985-12.662-6.231-29.665-1.457-47.773c0.173-0.483,0.296-0.975,0.392-1.47c9.821-35.755,34.855-75.461,46.844-94.474
	c1.05-1.665,2.017-3.199,2.899-4.61C240.252,204.67,241.196,203.133,242.112,201.574z M161.167,308.202
	c2.372,0,4.722,0.327,6.984,0.962c-3.653,17.569-3.773,34.561,2.143,49.114c-2.905,1.095-5.997,1.689-9.127,1.689
	c-14.271,0-25.882-11.61-25.882-25.881C135.285,319.813,146.896,308.202,161.167,308.202z M412.501,403.333v10.78
	c-0.079,0.506-0.12,1.026-0.12,1.554c0,10.442-6.941,21.191-16.146,25.004c-7.022,2.91-13.711,1.255-19.88-4.914
	c-10.775-10.775-20.775-16.013-30.573-16.013c-0.009,0-0.019,0-0.026,0c-12.859,0.013-21.723,8.91-28.844,16.06
	c-5.221,5.241-10.152,10.191-14.746,10.196c-0.002,0-0.004,0-0.007,0c-4.145,0-9.878-3.542-16.579-10.243
	c-10.246-10.248-19.767-15.471-29.107-15.967c-0.354-0.018-0.707-0.018-1.061,0c-9.34,0.496-18.861,5.718-29.108,15.966
	c-6.701,6.702-12.434,10.244-16.579,10.244c-0.002,0-0.005,0-0.007,0c-4.594-0.005-9.524-4.955-14.745-10.196
	c-7.122-7.149-15.984-16.047-28.844-16.06c-0.009,0-0.018,0-0.027,0c-9.798,0-19.799,5.238-30.573,16.013
	c-6.169,6.17-12.857,7.822-19.88,4.914c-9.205-3.813-16.146-14.562-16.146-25.004v-12.334c0-17.265,10.938-32.969,26.764-39.515
	c8.423,9.871,20.939,16.148,34.902,16.148c6.976,0,13.861-1.62,20.089-4.647c14.867,15.664,39.92,23.594,74.745,23.594
	c34.764,0,59.778-7.935,74.629-23.607c6.234,3.036,13.13,4.661,20.116,4.661c13.943,0,26.444-6.259,34.866-16.106
	C401.514,370.589,412.501,386.279,412.501,403.333z M350.746,308.202c14.272,0,25.882,11.611,25.882,25.883
	c0,14.271-11.61,25.881-25.882,25.881c-3.143,0-6.248-0.599-9.164-1.703c5.927-14.566,5.83-31.55,2.203-49.107
	C346.041,308.526,348.382,308.202,350.746,308.202z M492.002,136c0,60.654-49.346,110-110,110c-37.103,0-71.777-19.02-92.12-50.114
	c-1.151-1.836-2.136-3.423-2.92-4.732c-0.237-0.405-0.483-0.803-0.716-1.211c-6.509-11.274-17.758-18.005-30.09-18.005
	c-12.475,0-23.795,6.679-30.35,17.927c-0.016,0.027-0.035,0.051-0.051,0.078c-0.02,0.033-0.042,0.072-0.062,0.105
	c-0.22,0.387-0.453,0.764-0.678,1.147c-0.73,1.221-1.619,2.66-2.654,4.315C202.086,226.804,167.269,246,129.999,246
	c-60.654,0-110-49.346-110-110V76c0-5.514,4.486-10,10-10h452.002c5.514,0,10,4.486,10,10L492.002,136L492.002,136z"/>
<path d="M103.082,126.198l-0.189,0.19c-3.9,3.91-3.892,10.242,0.019,14.142c1.951,1.947,4.506,2.92,7.062,2.92
	c2.563,0,5.127-0.98,7.08-2.938l0.189-0.19c3.9-3.91,3.892-10.242-0.019-14.142C113.315,122.281,106.982,122.288,103.082,126.198z"
	/>
<path d="M350.325,145.486c2.56,0,5.118-0.977,7.071-2.929l0.19-0.19c3.905-3.905,3.905-10.237,0-14.142
	c-3.906-3.905-10.236-3.905-14.143,0l-0.19,0.19c-3.905,3.905-3.905,10.237,0,14.142
	C345.207,144.51,347.766,145.486,350.325,145.486z"/>
<g>
</g>
<g>
</g>
<g>
</g>
<g>
</g>
<g>
</g>
<g>
</g>
<g>
</g>
<g>
</g>
<g>
</g>
<g>
</g>
<g>
</g>
<g>
</g>
<g>
</g>
<g>
</g>
<g>
</g>
</svg>
